<?xml version="1.0" encoding="UTF-8" standalone="no"?>
<!DOCTYPE svg PUBLIC "-//W3C//DTD SVG 1.0//EN" "http://www.w3.org/TR/2001/PR-SVG-20010719/DTD/svg10.dtd">
<svg width="54cm" height="18cm" viewBox="57 18 1064 343" xmlns="http://www.w3.org/2000/svg" xmlns:xlink="http://www.w3.org/1999/xlink">
  <g>
    <polygon style="fill: #ffff00" points="60,160 59,121 102,141 "/>
    <polygon style="fill: none; fill-opacity:0; stroke-width: 2; stroke: #000000" points="60,160 59,121 102,141 "/>
  </g>
  <g>
    <polygon style="fill: #ffff00" points="100,240 99,201 60,220 "/>
    <polygon style="fill: none; fill-opacity:0; stroke-width: 2; stroke: #000000" points="100,240 99,201 60,220 "/>
  </g>
  <g>
    <rect style="fill: #90ee90" x="300" y="40" width="120" height="40"/>
    <rect style="fill: none; fill-opacity:0; stroke-width: 2; stroke: #000000" x="300" y="40" width="120" height="40"/>
  </g>
  <g>
    <rect style="fill: #90ee90" x="660" y="40" width="120" height="40"/>
    <rect style="fill: none; fill-opacity:0; stroke-width: 2; stroke: #000000" x="660" y="40" width="120" height="40"/>
  </g>
  <g>
    <rect style="fill: #90ee90" x="460" y="140" width="120" height="40"/>
    <rect style="fill: none; fill-opacity:0; stroke-width: 2; stroke: #000000" x="460" y="140" width="120" height="40"/>
  </g>
  <g>
    <rect style="fill: #90ee90" x="300" y="260" width="120" height="40"/>
    <rect style="fill: none; fill-opacity:0; stroke-width: 2; stroke: #000000" x="300" y="260" width="120" height="40"/>
  </g>
  <g>
    <rect style="fill: #90ee90" x="480" y="320" width="120" height="40"/>
    <rect style="fill: none; fill-opacity:0; stroke-width: 2; stroke: #000000" x="480" y="320" width="120" height="40"/>
  </g>
  <g>
    <rect style="fill: #ffc0cb" x="140" y="120" width="120" height="40"/>
    <rect style="fill: none; fill-opacity:0; stroke-width: 2; stroke: #000000" x="140" y="120" width="120" height="40"/>
  </g>
  <text font-size="12.8" style="fill: #000000;text-anchor:middle;font-family:sans-serif;font-style:normal;font-weight:normal" x="200" y="144.45">
    <tspan x="200" y="144.45">IP Handler</tspan>
  </text>
  <g>
    <rect style="fill: #ffc0cb" x="140" y="200" width="120" height="40"/>
    <rect style="fill: none; fill-opacity:0; stroke-width: 2; stroke: #000000" x="140" y="200" width="120" height="40"/>
  </g>
  <text font-size="12.8" style="fill: #000000;text-anchor:middle;font-family:sans-serif;font-style:normal;font-weight:normal" x="200" y="224.45">
    <tspan x="200" y="224.45">Link Layer</tspan>
  </text>
  <text font-size="12.8" style="fill: #000000;text-anchor:middle;font-family:sans-serif;font-style:normal;font-weight:normal" x="360" y="64.45">
    <tspan x="360" y="64.45">PREROUTING</tspan>
  </text>
  <text font-size="12.8" style="fill: #000000;text-anchor:middle;font-family:sans-serif;font-style:normal;font-weight:normal" x="360" y="284.45">
    <tspan x="360" y="284.45">POSTROUTING</tspan>
  </text>
  <text font-size="12.8" style="fill: #000000;text-anchor:middle;font-family:sans-serif;font-style:normal;font-weight:normal" x="520" y="164.45">
    <tspan x="520" y="164.45">FORWARD</tspan>
  </text>
  <text font-size="12.8" style="fill: #000000;text-anchor:middle;font-family:sans-serif;font-style:normal;font-weight:normal" x="540" y="344.45">
    <tspan x="540" y="344.45">OUTPUT</tspan>
  </text>
  <text font-size="12.8" style="fill: #000000;text-anchor:middle;font-family:sans-serif;font-style:normal;font-weight:normal" x="720" y="64.45">
    <tspan x="720" y="64.45">INPUT</tspan>
  </text>
  <g>
    <polygon style="fill: #add8e6" points="460,60 520,20 580,60 520,100 "/>
    <polygon style="fill: none; fill-opacity:0; stroke-width: 2; stroke: #000000" points="460,60 520,20 580,60 520,100 "/>
  </g>
  <text font-size="12.8" style="fill: #000000;text-anchor:middle;font-family:sans-serif;font-style:normal;font-weight:normal" x="520" y="56.45">
    <tspan x="520" y="56.45">Route</tspan>
    <tspan x="520" y="72.45">Lookup</tspan>
  </text>
  <g>
    <rect style="fill: #ffc0cb" x="600" y="240" width="120" height="40"/>
    <rect style="fill: none; fill-opacity:0; stroke-width: 2; stroke: #000000" x="600" y="240" width="120" height="40"/>
  </g>
  <text font-size="12.8" style="fill: #000000;text-anchor:middle;font-family:sans-serif;font-style:normal;font-weight:normal" x="660" y="264.45">
    <tspan x="660" y="264.45">IPv4 Construction</tspan>
  </text>
  <g>
    <polygon style="fill: #add8e6" points="740,200 800,160 860,200 800,240 "/>
    <polygon style="fill: none; fill-opacity:0; stroke-width: 2; stroke: #000000" points="740,200 800,160 860,200 800,240 "/>
  </g>
  <text font-size="12.8" style="fill: #000000;text-anchor:middle;font-family:sans-serif;font-style:normal;font-weight:normal" x="800" y="196.45">
    <tspan x="800" y="196.45">Route</tspan>
    <tspan x="800" y="212.45">Lookup</tspan>
  </text>
  <g>
    <rect style="fill: #ffc0cb" x="900" y="180" width="120" height="40"/>
    <rect style="fill: none; fill-opacity:0; stroke-width: 2; stroke: #000000" x="900" y="180" width="120" height="40"/>
  </g>
  <text font-size="12.8" style="fill: #000000;text-anchor:middle;font-family:sans-serif;font-style:normal;font-weight:normal" x="960" y="204.45">
    <tspan x="960" y="204.45">L4 (TCP, ...)</tspan>
  </text>
  <g>
    <polyline style="fill: none; fill-opacity:0; stroke-width: 2; stroke: #000000" points="102,141 121,141 121,140 130.264,140 "/>
    <polygon style="fill: #000000" points="137.764,140 127.764,145 130.264,140 127.764,135 "/>
    <polygon style="fill: none; fill-opacity:0; stroke-width: 2; stroke: #000000" points="137.764,140 127.764,145 130.264,140 127.764,135 "/>
  </g>
  <g>
    <polyline style="fill: none; fill-opacity:0; stroke-width: 2; stroke: #000000" points="200,120 200,60 290.264,60 "/>
    <polygon style="fill: #000000" points="297.764,60 287.764,65 290.264,60 287.764,55 "/>
    <polygon style="fill: none; fill-opacity:0; stroke-width: 2; stroke: #000000" points="297.764,60 287.764,65 290.264,60 287.764,55 "/>
  </g>
  <g>
    <polyline style="fill: none; fill-opacity:0; stroke-width: 2; stroke: #000000" points="420,60 440,60 440,60 450.264,60 "/>
    <polygon style="fill: #000000" points="457.764,60 447.764,65 450.264,60 447.764,55 "/>
    <polygon style="fill: none; fill-opacity:0; stroke-width: 2; stroke: #000000" points="457.764,60 447.764,65 450.264,60 447.764,55 "/>
  </g>
  <g>
    <polyline style="fill: none; fill-opacity:0; stroke-width: 2; stroke: #000000" points="520,100 520,119.497 520,119.497 520,129.281 "/>
    <polygon style="fill: #000000" points="520,136.781 515,126.781 520,129.281 525,126.781 "/>
    <polygon style="fill: none; fill-opacity:0; stroke-width: 2; stroke: #000000" points="520,136.781 515,126.781 520,129.281 525,126.781 "/>
  </g>
  <g>
    <polyline style="fill: none; fill-opacity:0; stroke-width: 2; stroke: #000000" points="780,60 960,60 960,170.264 "/>
    <polygon style="fill: #000000" points="960,177.764 955,167.764 960,170.264 965,167.764 "/>
    <polygon style="fill: none; fill-opacity:0; stroke-width: 2; stroke: #000000" points="960,177.764 955,167.764 960,170.264 965,167.764 "/>
  </g>
  <g>
    <polyline style="fill: none; fill-opacity:0; stroke-width: 2; stroke: #000000" points="900,200 899,200 861,200 869.736,200 "/>
    <polygon style="fill: #000000" points="862.236,200 852.236,205 854.736,200 852.236,195 "/>
    <polygon style="fill: none; fill-opacity:0; stroke-width: 2; stroke: #000000" points="862.236,200 852.236,205 854.736,200 852.236,195 "/>
  </g>
  <g>
    <polyline style="fill: none; fill-opacity:0; stroke-width: 2; stroke: #000000" points="800,240 800,261 760.5,261 760.5,260 729.736,260 "/>
    <polygon style="fill: #000000" points="722.236,260 732.236,255 729.736,260 732.236,265 "/>
    <polygon style="fill: none; fill-opacity:0; stroke-width: 2; stroke: #000000" points="722.236,260 732.236,255 729.736,260 732.236,265 "/>
  </g>
  <g>
    <polyline style="fill: none; fill-opacity:0; stroke-width: 2; stroke: #000000" points="660,280 660,340 609.736,340 "/>
    <polygon style="fill: #000000" points="602.236,340 612.236,335 609.736,340 612.236,345 "/>
    <polygon style="fill: none; fill-opacity:0; stroke-width: 2; stroke: #000000" points="602.236,340 612.236,335 609.736,340 612.236,345 "/>
  </g>
  <g>
    <polyline style="fill: none; fill-opacity:0; stroke-width: 2; stroke: #000000" points="480,340 360,340 360,309.736 "/>
    <polygon style="fill: #000000" points="360,302.236 365,312.236 360,309.736 355,312.236 "/>
    <polygon style="fill: none; fill-opacity:0; stroke-width: 2; stroke: #000000" points="360,302.236 365,312.236 360,309.736 355,312.236 "/>
  </g>
  <g>
    <polyline style="fill: none; fill-opacity:0; stroke-width: 2; stroke: #000000" points="360,260 360,220 269.736,220 "/>
    <polygon style="fill: #000000" points="262.236,220 272.236,215 269.736,220 272.236,225 "/>
    <polygon style="fill: none; fill-opacity:0; stroke-width: 2; stroke: #000000" points="262.236,220 272.236,215 269.736,220 272.236,225 "/>
  </g>
  <g>
    <polyline style="fill: none; fill-opacity:0; stroke-width: 2; stroke: #000000" points="580,60 581,60 657.993,60 649.256,60 "/>
    <polygon style="fill: #000000" points="656.756,60 666.756,55 664.256,60 666.756,65 "/>
    <polygon style="fill: none; fill-opacity:0; stroke-width: 2; stroke: #000000" points="656.756,60 666.756,55 664.256,60 666.756,65 "/>
  </g>
  <g>
    <polyline style="fill: none; fill-opacity:0; stroke-width: 2; stroke: #000000" points="140,220 119,220 119,220 120,220 120,220.5 109.236,220.5 "/>
    <polygon style="fill: #000000" points="101.736,220.5 111.736,215.5 109.236,220.5 111.736,225.5 "/>
    <polygon style="fill: none; fill-opacity:0; stroke-width: 2; stroke: #000000" points="101.736,220.5 111.736,215.5 109.236,220.5 111.736,225.5 "/>
  </g>
  <g>
    <polyline style="fill: none; fill-opacity:0; stroke-width: 2; stroke: #000000" points="458.993,160 440,160 440,280 430.744,280 "/>
    <polygon style="fill: #000000" points="423.244,280 433.244,275 430.744,280 433.244,285 "/>
    <polygon style="fill: none; fill-opacity:0; stroke-width: 2; stroke: #000000" points="423.244,280 433.244,275 430.744,280 433.244,285 "/>
  </g>
  <g>
    <ellipse style="fill: #ffffff" cx="1090" cy="210" rx="30" ry="50"/>
    <ellipse style="fill: none; fill-opacity:0; stroke-width: 2; stroke: #000000" cx="1090" cy="210" rx="30" ry="50"/>
  </g>
  <text font-size="12.8" style="fill: #000000;text-anchor:middle;font-family:sans-serif;font-style:normal;font-weight:normal" x="1100" y="196.45">
    <tspan x="1100" y="196.45">User</tspan>
    <tspan x="1100" y="212.45">Space</tspan>
  </text>
  <g>
    <polyline style="fill: none; fill-opacity:0; stroke-width: 2; stroke: #000000" points="1029.74,200 1039.5,200 1039.5,210 1049.26,210 "/>
    <polygon style="fill: #000000" points="1022.24,200 1032.24,195 1029.74,200 1032.24,205 "/>
    <polygon style="fill: none; fill-opacity:0; stroke-width: 2; stroke: #000000" points="1022.24,200 1032.24,195 1029.74,200 1032.24,205 "/>
    <polygon style="fill: #000000" points="1056.76,210 1046.76,215 1049.26,210 1046.76,205 "/>
    <polygon style="fill: none; fill-opacity:0; stroke-width: 2; stroke: #000000" points="1056.76,210 1046.76,215 1049.26,210 1046.76,205 "/>
  </g>
</svg>
